<svg xmlns="http://www.w3.org/2000/svg" viewBox="0 0 821.54 611.93"><defs><style>.cls-1{fill:#00a99d;}.cls-2{fill:#f7931e;}</style></defs><title>Ресурс 2</title><g id="Слой_2" data-name="Слой 2"><g id="Слой_1-2" data-name="Слой 1"><path class="cls-1" d="M730.9,595.57a53.36,53.36,0,1,1,37.58,15.48A51.14,51.14,0,0,1,730.9,595.57Z"/><rect class="cls-1" x="725.15" y="10.61" width="86.66" height="458.06" rx="43.33"/><path class="cls-2" d="M87.54,87.54Q175.09,0,306.85,0t219.3,87.54Q613.7,175.09,613.7,306T526.15,524.39q-87.54,87.54-219.3,87.54T87.54,524.39Q0,436.84,0,306T87.54,87.54Zm63.67,378.92q61,62.35,155.64,62.35t155.64-62.35q61-62.34,61-160.49t-61-160.5q-61-62.35-155.64-62.35T151.21,145.47q-61,62.34-61,160.5T151.21,466.46Z"/></g></g></svg>