<?xml version="1.0" encoding="utf-8"?>
<!-- Generator: Adobe Illustrator 23.0.2, SVG Export Plug-In . SVG Version: 6.00 Build 0)  -->
<svg version="1.1" id="Слой_1" xmlns="http://www.w3.org/2000/svg" xmlns:xlink="http://www.w3.org/1999/xlink" x="0px" y="0px"
	 viewBox="0 0 512 512" style="enable-background:new 0 0 512 512;" xml:space="preserve">
<style type="text/css">
	.st0{fill:#6787F5;}
	.st1{fill:#38478A;}
	.st2{fill:#FFFFFF;}
	.st3{fill:#C7D3ED;}
	.st4{fill:#FF337A;}
	.st5{fill:#D1005B;}
</style>
<path class="st0" d="M217.2,419.9H407c57.9,0,105-47.1,105-105V146c0-57.9-47.1-105-105-105H105C47.1,41,0,88.1,0,146v168.9
	c0,57.9,47.1,105,105,105h15.6"/>
<path class="st1" d="M407,41H256v378.9h151c57.9,0,105-47.1,105-105V146C512,88.1,464.9,41,407,41z"/>
<path class="st2" d="M199.8,442.1l17.4-22.1L199.8,442.1z"/>
<path class="st2" d="M512,164.3H385.9l93.9-93.9C460.9,52.2,435.2,41,407,41h-25.1l-59.6,59.6V41H189.8v59.6L130.1,41H105
	c-28.2,0-53.9,11.2-72.8,29.4l93.9,93.9H0v132.5h126.1l-90.4,90.4l-3.5,3.5c18.9,18.2,44.5,29.4,72.7,29.4h15.6l9.6,0l58-58l-1,58
	h135.1v-59.4l59.2,59.4H407c28.1,0,53.6-11.1,72.5-29.1l-3.5-3.5l-90.3-90.6H512V164.3z"/>
<path class="st3" d="M512,164.3H385.9l93.9-93.9C460.9,52.2,435.2,41,407,41h-25.1l-59.6,59.6V41H256v378.9h66.2v-59.4l59.2,59.4
	H407c28.1,0,53.6-11.1,72.5-29.1l-3.5-3.5l-90.3-90.6H512V164.3z"/>
<path class="st4" d="M292.2,194.3V41h-72.5v153.3H0v72.5h219.8l-2.6,153.2h75.1V266.7H512v-72.5H292.2z"/>
<path class="st5" d="M292.2,194.3V41H256v378.9h36.2V266.7H512v-72.5H292.2z"/>
<path class="st4" d="M199.8,174.3V153L88.9,42.2c-11.4,1.8-22.1,5.3-32,10.4l121.6,121.6H199.8z"/>
<path class="st5" d="M455.1,52.7c-9.9-5.1-20.6-8.7-32-10.4L312.2,153v21.2h21.2L455.1,52.7z"/>
<path class="st4" d="M57,408.3c9.9,5.1,20.6,8.7,32,10.4l110.8-110.8v-21.2h-21.2L57,408.3z"/>
<path class="st5" d="M312.2,286.7V308l110.4,110.8c11.4-1.7,22.2-5.3,32.1-10.3L333.4,286.7H312.2z"/>
</svg>
