<?xml version="1.0" encoding="iso-8859-1"?>
<!-- Generator: Adobe Illustrator 19.0.0, SVG Export Plug-In . SVG Version: 6.00 Build 0)  -->
<svg version="1.1" id="Capa_1" xmlns="http://www.w3.org/2000/svg" xmlns:xlink="http://www.w3.org/1999/xlink" x="0px" y="0px"
	 viewBox="0 0 511.999 511.999" style="enable-background:new 0 0 511.999 511.999;" xml:space="preserve">
<polygon style="fill:#FFD47F;" points="429.29,34.135 429.29,65.491 82.709,65.491 82.709,34.135 35.63,34.135 35.63,414.763 
	82.709,414.763 82.709,112.57 429.29,112.57 429.29,414.763 476.37,414.763 476.37,34.135 "/>
<rect x="10" y="414.761" style="fill:#FFBE67;" width="492" height="63.1"/>
<circle style="fill:#72D7FF;" cx="314.17" cy="261.25" r="26.507"/>
<g>
	<circle style="fill:#30B7FA;" cx="261.16" cy="261.25" r="26.507"/>
	<circle style="fill:#30B7FA;" cx="367.19" cy="261.25" r="26.507"/>
</g>
<circle style="fill:#FF6472;" cx="153.48" cy="173.831" r="26.507"/>
<circle style="fill:#FF80A9;" cx="206.5" cy="173.831" r="26.507"/>
<circle style="fill:#FF6472;" cx="327.7" cy="173.831" r="26.507"/>
<circle style="fill:#00A399;" cx="153.48" cy="348.661" r="26.507"/>
<circle style="fill:#05BDA5;" cx="206.5" cy="348.661" r="26.507"/>
<circle style="fill:#00A399;" cx="327.7" cy="348.661" r="26.507"/>
<path d="M501.999,404.763H486.37V34.135c0-5.522-4.477-10-10-10h-47.08c-5.523,0-10,4.477-10,10v21.356H92.709V34.135
	c0-5.522-4.477-10-10-10h-47.08c-5.523,0-10,4.477-10,10v370.628H10c-5.523,0-10,4.477-10,10v63.102c0,5.523,4.477,10,10,10h491.999
	c5.523,0,10-4.477,10-10v-63.102C511.999,409.241,507.522,404.763,501.999,404.763z M45.629,44.135h27.079v21.356
	c0,5.522,4.477,10,10,10H429.29c5.523,0,10-4.478,10-10V44.135h27.079v360.628H439.29V112.57c0-5.522-4.477-10-10-10H82.709
	c-5.523,0-10,4.478-10,10v292.193h-27.08V44.135z M92.709,404.763v-46.1h25.658c4.359,15.284,18.451,26.507,35.115,26.507
	c10.428,0,19.848-4.395,26.507-11.43c6.659,7.035,16.079,11.43,26.507,11.43c16.664,0,30.756-11.223,35.115-26.507h50.974
	c4.359,15.284,18.451,26.507,35.115,26.507s30.756-11.223,35.115-26.507h56.477v46.1H92.709z M362.814,338.664
	c-4.359-15.285-18.451-26.508-35.115-26.508s-30.756,11.223-35.115,26.508H241.61c-4.359-15.285-18.451-26.508-35.115-26.508
	c-10.428,0-19.848,4.395-26.507,11.43c-6.659-7.035-16.079-11.43-26.507-11.43c-16.664,0-30.756,11.223-35.115,26.508H92.709
	v-67.416h133.335c4.359,15.284,18.451,26.507,35.115,26.507c10.428,0,19.849-4.395,26.507-11.43
	c6.659,7.035,16.079,11.43,26.507,11.43c10.428,0,19.848-4.395,26.507-11.43c6.659,7.035,16.079,11.43,26.507,11.43
	c16.664,0,30.756-11.223,35.115-26.507h16.99v67.416L362.814,338.664L362.814,338.664z M344.206,348.664
	c0,9.102-7.405,16.507-16.507,16.507s-16.507-7.405-16.507-16.507c0-9.103,7.405-16.508,16.507-16.508
	S344.206,339.561,344.206,348.664z M223.002,348.664c0,9.102-7.405,16.507-16.507,16.507s-16.507-7.405-16.507-16.507
	c0-9.103,7.405-16.508,16.507-16.508C215.598,332.156,223.002,339.561,223.002,348.664z M169.989,348.664
	c0,9.102-7.405,16.507-16.507,16.507s-16.507-7.405-16.507-16.507c0-9.103,7.405-16.508,16.507-16.508
	S169.989,339.561,169.989,348.664z M118.367,183.831c4.359,15.285,18.451,26.508,35.115,26.508c10.428,0,19.848-4.395,26.507-11.43
	c6.659,7.035,16.079,11.43,26.507,11.43c16.664,0,30.756-11.223,35.115-26.508h50.974c4.359,15.285,18.451,26.508,35.115,26.508
	s30.756-11.223,35.115-26.508h56.477v67.416h-16.99c-4.359-15.284-18.451-26.507-35.115-26.507c-10.428,0-19.848,4.395-26.507,11.43
	c-6.659-7.035-16.079-11.43-26.507-11.43c-10.428,0-19.848,4.395-26.507,11.43c-6.659-7.035-16.079-11.43-26.507-11.43
	c-16.664,0-30.756,11.223-35.115,26.507H92.709v-67.416H118.367z M136.975,173.831c0-9.102,7.405-16.507,16.507-16.507
	s16.507,7.405,16.507,16.507c0,9.103-7.405,16.508-16.507,16.508C144.38,190.339,136.975,182.934,136.975,173.831z M189.989,173.831
	c0-9.102,7.405-16.507,16.507-16.507s16.507,7.405,16.507,16.507c0,9.103-7.405,16.508-16.507,16.508
	C197.393,190.339,189.989,182.934,189.989,173.831z M311.192,173.831c0-9.102,7.405-16.507,16.507-16.507
	s16.507,7.405,16.507,16.507c0,9.103-7.405,16.508-16.507,16.508C318.597,190.339,311.192,182.934,311.192,173.831z
	 M383.693,261.248c0,9.101-7.405,16.507-16.507,16.507s-16.507-7.405-16.507-16.507c0-9.102,7.405-16.507,16.507-16.507
	S383.693,252.146,383.693,261.248z M330.679,261.248c0,9.101-7.405,16.507-16.507,16.507s-16.507-7.405-16.507-16.507
	c0-9.102,7.405-16.507,16.507-16.507S330.679,252.146,330.679,261.248z M277.665,261.248c0,9.101-7.405,16.507-16.507,16.507
	c-9.102,0-16.507-7.405-16.507-16.507c0-9.102,7.405-16.507,16.507-16.507C270.26,244.741,277.665,252.146,277.665,261.248z
	 M419.29,163.831h-56.477c-4.359-15.284-18.451-26.507-35.115-26.507s-30.756,11.223-35.115,26.507H241.61
	c-4.359-15.284-18.451-26.507-35.115-26.507c-10.428,0-19.848,4.395-26.507,11.43c-6.659-7.035-16.079-11.43-26.507-11.43
	c-16.664,0-30.756,11.223-35.115,26.507H92.709V122.57H419.29V163.831z M491.999,467.866H20v-43.102h471.999V467.866z"/>
<path d="M86.629,456.32c-2.63,0-5.21-1.069-7.07-2.939c-0.461-0.46-0.87-0.97-1.24-1.521c-0.36-0.54-0.67-1.119-0.92-1.72
	c-0.25-0.6-0.44-1.229-0.57-1.87c-0.13-0.649-0.2-1.3-0.2-1.96c0-0.649,0.07-1.3,0.2-1.95c0.13-0.64,0.32-1.27,0.57-1.869
	c0.25-0.601,0.56-1.181,0.92-1.73c0.36-0.54,0.78-1.06,1.24-1.52c0.46-0.461,0.97-0.881,1.52-1.24c0.54-0.36,1.13-0.67,1.73-0.92
	c0.6-0.25,1.23-0.44,1.87-0.57c1.29-0.26,2.62-0.26,3.91,0c0.64,0.13,1.27,0.32,1.87,0.57c0.6,0.25,1.18,0.56,1.73,0.92
	c0.54,0.359,1.05,0.779,1.52,1.24c0.46,0.46,0.87,0.98,1.24,1.52c0.36,0.55,0.67,1.13,0.92,1.73s0.44,1.23,0.57,1.869
	c0.13,0.65,0.19,1.301,0.19,1.95c0,0.66-0.06,1.31-0.19,1.96c-0.13,0.641-0.32,1.27-0.57,1.87c-0.25,0.601-0.56,1.18-0.92,1.72
	c-0.37,0.551-0.78,1.061-1.24,1.521c-0.47,0.47-0.98,0.88-1.52,1.25c-0.55,0.36-1.13,0.67-1.73,0.92c-0.6,0.25-1.23,0.44-1.87,0.57
	C87.939,456.251,87.289,456.32,86.629,456.32z"/>
<path d="M425.365,456.315H126.12c-5.523,0-10-4.478-10-10s4.477-10,10-10h299.245c5.523,0,10,4.478,10,10
	S430.888,456.315,425.365,456.315z"/>
<g>
</g>
<g>
</g>
<g>
</g>
<g>
</g>
<g>
</g>
<g>
</g>
<g>
</g>
<g>
</g>
<g>
</g>
<g>
</g>
<g>
</g>
<g>
</g>
<g>
</g>
<g>
</g>
<g>
</g>
</svg>
