<svg xmlns="http://www.w3.org/2000/svg" viewBox="0 0 4639 997.83"><defs><style>.cls-1{fill:#fff;}.cls-2{fill:none;stroke:#00a99d;stroke-miterlimit:10;stroke-width:30px;}.cls-3{fill:#f7931e;}.cls-4{fill:#00a99d;}</style></defs><title>Ресурс 1</title><g id="Слой_2" data-name="Слой 2"><g id="Слой_1-2" data-name="Слой 1"><path class="cls-1" d="M4639,196.1C4639,87.8,4563.05,0,4469.37,0H432.83V.48h-.22Q246.83.48,123.42,143.16T0,499.16q0,213.32,123.42,356T432.61,997.83q10.53,0,20.86-.48h4015.9c93.68,0,169.63-87.79,169.63-196.1Z"/><path class="cls-2" d="M4557.65,246.16A163.69,163.69,0,0,0,4394,82.48H499v.41h-.22q-179.27,0-298.34,119.1T81.35,499.12q0,178.05,119.1,297.13t298.34,119.1q10.17,0,20.13-.4H4394a163.69,163.69,0,0,0,163.69-163.68Z"/><path class="cls-3" d="M942.09,788.67q-15.5-15.46-15.48-37.58a52.85,52.85,0,1,1,15.48,37.58Z"/><rect class="cls-3" x="936.34" y="203.71" width="86.66" height="458.06" rx="43.33"/><path class="cls-4" d="M1497,292.14l-72.52,42.45a102.74,102.74,0,0,0-26.52-37.14q-26.54-21.22-63.67-21.23-39.79,0-61.46,20.34T1251.13,347q0,46,63.67,71.62l59.25,23.88q138.83,56.59,138.83,173.32,0,84-53.5,136.62T1322.76,805q-85.79,0-138.83-59.25-43.35-48.62-49.52-115l89.31-19.45q0,42.45,24.76,75.16,28.29,35.38,76.93,35.38,41.56,0,69.42-27.42t27.86-71.63q0-40.65-23.44-62.78t-61.46-38l-56.59-23.88q-120.27-50.4-120.27-149.45,0-63.66,46.43-109.65t126-46q71.63,0,118.5,39.79A205.55,205.55,0,0,1,1497,292.14Z"/><path class="cls-4" d="M2062.91,235.54V341.66q-72.52-65.43-160.06-65.44-95.5,0-155.19,63.23T1688,500.83q0,94.63,61,157.85t154.75,63.23q87.55,0,159.18-68.09v107Q1988.63,805,1901.08,805q-122.92,0-208.69-81.36-94.64-88.41-94.62-222.84,0-141.46,94.62-230.8,81.34-76.93,213.11-76.93Q1996.57,193.1,2062.91,235.54Z"/><path class="cls-4" d="M2264.52,203.71V433.63h252.91V203.71h90.2V793.53h-90.2v-275H2264.52v275h-90.2V203.71Z"/><path class="cls-4" d="M2808.36,280.64q87.54-87.54,219.3-87.54T3247,280.64q87.55,87.56,87.55,218.42T3247,717.48Q3159.42,805,3027.66,805t-219.3-87.55q-87.56-87.54-87.55-218.42T2808.36,280.64ZM2872,659.56q61,62.34,155.64,62.35t155.64-62.35q61-62.34,61-160.5t-61-160.5q-61-62.34-155.64-62.34T2872,338.56q-61,62.35-61,160.5T2872,659.56Z"/><path class="cls-3" d="M298.73,280.64Q386.29,193.1,518,193.1t219.3,87.54q87.54,87.56,87.55,218.42T737.34,717.48Q649.8,805,518,805T298.73,717.48q-87.54-87.54-87.54-218.42T298.73,280.64ZM362.4,659.56q61,62.34,155.64,62.35t155.63-62.35q61-62.34,61-160.5t-61-160.5q-61-62.34-155.63-62.34T362.4,338.56q-61,62.35-61,160.5T362.4,659.56Z"/><path class="cls-4" d="M3535.24,280.64q87.54-87.54,219.3-87.54t219.31,87.54q87.54,87.56,87.54,218.42t-87.54,218.42Q3886.3,805,3754.54,805t-219.3-87.55q-87.55-87.54-87.55-218.42T3535.24,280.64Zm63.67,378.92q61,62.34,155.63,62.35t155.64-62.35q61-62.34,61-160.5t-61-160.5q-61-62.34-155.64-62.34t-155.63,62.34q-61,62.35-61,160.5T3598.91,659.56Z"/><path class="cls-4" d="M4174.58,203.71h90.19V708.64h173.32v84.89H4174.58Z"/></g></g></svg>