<svg xmlns="http://www.w3.org/2000/svg" viewBox="0 0 1225 997.83"><defs><style>.cls-1{fill:#fff;}.cls-2{fill:none;stroke:#00a99d;stroke-miterlimit:10;stroke-width:30px;}.cls-3{fill:#00a99d;}.cls-4{fill:#f7931e;}</style></defs><title>Ресурс 2</title><g id="Слой_2" data-name="Слой 2"><g id="Слой_1-2" data-name="Слой 1"><path class="cls-1" d="M1225,196.1C1225,87.8,1149.05,0,1055.37,0H432.83V.48h-.22Q246.83.48,123.42,143.16T0,499.16q0,213.32,123.42,356T432.61,997.83q10.53,0,20.86-.48h601.9c93.68,0,169.63-87.79,169.63-196.1Z"/><path class="cls-2" d="M1143.65,246.16A163.69,163.69,0,0,0,980,82.48H499v.41h-.22q-179.27,0-298.34,119.1T81.35,499.12q0,178.05,119.1,297.13t298.34,119.1q10.17,0,20.13-.4H980a163.69,163.69,0,0,0,163.69-163.68Z"/><path class="cls-3" d="M942.09,788.67q-15.5-15.46-15.48-37.58a52.85,52.85,0,1,1,15.48,37.58Z"/><rect class="cls-3" x="936.34" y="203.71" width="86.66" height="458.06" rx="43.33"/><path class="cls-4" d="M298.73,280.64Q386.29,193.1,518,193.1t219.3,87.54q87.54,87.56,87.55,218.42T737.34,717.48Q649.8,805,518,805T298.73,717.48q-87.54-87.54-87.54-218.42T298.73,280.64ZM362.4,659.56q61,62.34,155.64,62.35t155.63-62.35q61-62.34,61-160.5t-61-160.5q-61-62.34-155.63-62.34T362.4,338.56q-61,62.35-61,160.5T362.4,659.56Z"/></g></g></svg>